<svg width="125" height="73" viewBox="0 0 125 73" fill="none" xmlns="http://www.w3.org/2000/svg">
<path d="M18.5859 36.3292C18.5859 38.6123 18.1843 40.5677 17.3811 42.1955C16.5843 43.8164 15.4961 45.0579 14.1164 45.9201C12.7431 46.7823 11.1853 47.2134 9.44285 47.2134C7.70039 47.2134 6.1393 46.7823 4.75959 45.9201C3.38635 45.051 2.29812 43.8061 1.49491 42.1852C0.698173 40.5574 0.299805 38.6054 0.299805 36.3292C0.299805 34.0462 0.698173 32.0942 1.49491 30.4733C2.29812 28.8455 3.38635 27.6005 4.75959 26.7383C6.1393 25.8761 7.70039 25.4451 9.44285 25.4451C11.1853 25.4451 12.7431 25.8761 14.1164 26.7383C15.4961 27.6005 16.5843 28.8455 17.3811 30.4733C18.1843 32.0942 18.5859 34.0462 18.5859 36.3292ZM14.9617 36.3292C14.9617 34.7221 14.7253 33.3668 14.2524 32.2632C13.786 31.1527 13.1383 30.3147 12.3092 29.7491C11.48 29.1766 10.5246 28.8903 9.44285 28.8903C8.3611 28.8903 7.40566 29.1766 6.57654 29.7491C5.74741 30.3147 5.09642 31.1527 4.62356 32.2632C4.15718 33.3668 3.92399 34.7221 3.92399 36.3292C3.92399 37.9363 4.15718 39.2951 4.62356 40.4056C5.09642 41.5092 5.74741 42.3472 6.57654 42.9197C7.40566 43.4853 8.3611 43.7681 9.44285 43.7681C10.5246 43.7681 11.48 43.4853 12.3092 42.9197C13.1383 42.3472 13.786 41.5092 14.2524 40.4056C14.7253 39.2951 14.9617 37.9363 14.9617 36.3292Z" fill="#00ADEF"/>
<path d="M21.9939 46.9237V25.7347H29.456C30.9847 25.7347 32.2673 26.0175 33.3037 26.5831C34.3465 27.1487 35.1336 27.9419 35.6647 28.9628C36.2024 29.9767 36.4712 31.1596 36.4712 32.5115C36.4712 33.8703 36.1991 35.0497 35.655 36.0499C35.1174 37.0431 34.3239 37.8122 33.2745 38.3571C32.2251 38.8951 30.9361 39.1641 29.4074 39.1641H24.0926V35.9775H28.9216C29.8155 35.9775 30.5475 35.8464 31.1175 35.5843C31.6875 35.3153 32.1085 34.9256 32.3806 34.4152C32.6591 33.8979 32.7984 33.2633 32.7984 32.5115C32.7984 31.7597 32.6591 31.1182 32.3806 30.5871C32.1021 30.0491 31.6778 29.6421 31.1078 29.3663C30.5377 29.0835 29.8025 28.9421 28.9022 28.9421H25.5986V46.9237H21.9939ZM32.2737 37.3225L37.1999 46.9237H33.1773L28.3386 37.3225H32.2737Z" fill="#00ADEF"/>
<path d="M43.394 25.7347V46.9237H39.7893V25.7347H43.394Z" fill="#00ADEF"/>
<path d="M47.2976 25.7347H51.7088L57.6163 41.0885H57.8495L63.757 25.7347H68.1682V46.9237H64.7092V32.3666H64.5246L59.0251 46.8616H56.4406L50.9412 32.3356H50.7566V46.9237H47.2976V25.7347Z" fill="#00ADEF"/>
<path d="M74.6489 46.9237H70.8013L77.8067 25.7347H82.2568L89.272 46.9237H85.4243L80.1095 30.0801H79.954L74.6489 46.9237ZM74.7753 38.6157H85.2689V41.6989H74.7753V38.6157Z" fill="#00ADEF"/>
<path d="M91.893 46.9237V25.7347H99.3551C100.884 25.7347 102.166 26.0175 103.203 26.5831C104.246 27.1487 105.033 27.9419 105.564 28.9628C106.101 29.9767 106.37 31.1596 106.37 32.5115C106.37 33.8703 106.098 35.0497 105.554 36.0499C105.016 37.0431 104.223 37.8122 103.174 38.3571C102.124 38.8951 100.835 39.1641 99.3065 39.1641H93.9917V35.9775H98.8207C99.7146 35.9775 100.447 35.8464 101.017 35.5843C101.587 35.3153 102.008 34.9256 102.28 34.4152C102.558 33.8979 102.697 33.2633 102.697 32.5115C102.697 31.7597 102.558 31.1182 102.28 30.5871C102.001 30.0491 101.577 29.6421 101.007 29.3663C100.437 29.0835 99.7016 28.9421 98.8012 28.9421H95.4977V46.9237H91.893ZM102.173 37.3225L107.099 46.9237H103.076L98.2377 37.3225H102.173Z" fill="#00ADEF"/>
<path d="M108.814 28.9524V25.7347H124.69V28.9524H118.54V46.9237H114.964V28.9524H108.814Z" fill="#00ADEF"/>
<path fill-rule="evenodd" clip-rule="evenodd" d="M107.535 20.8055H64.4727C85.0527 4.28424 105.411 -3.71206 111.008 2.87192C113.875 6.24347 112.345 12.82 107.535 20.8055ZM79.4678 51.343H36.0842C31.0309 59.5581 29.3732 66.3435 32.3003 69.7866C37.9551 76.438 58.6741 68.2091 79.4678 51.343Z" fill="#00ADEF"/>
</svg>
