<svg width="16" height="15" viewBox="0 0 16 15" fill="none" xmlns="http://www.w3.org/2000/svg">
<path d="M7.80482 6.25H9.05482V9.375H7.80482V6.25ZM7.8042 10H9.0542V11.25H7.8042V10Z" fill="#BE0808"/>
<path d="M9.53429 2.625C9.31679 2.21563 8.89304 1.96125 8.42929 1.96125C7.96554 1.96125 7.54179 2.21563 7.32429 2.62563L2.73804 11.29C2.63627 11.4803 2.58586 11.6938 2.59178 11.9095C2.59769 12.1252 2.65974 12.3356 2.77179 12.52C2.88223 12.7052 3.03906 12.8585 3.22682 12.9646C3.41458 13.0707 3.62676 13.126 3.84241 13.125H13.0162C13.4587 13.125 13.8593 12.8987 14.0874 12.52C14.1993 12.3355 14.2612 12.1251 14.2671 11.9095C14.2731 11.6938 14.2228 11.4803 14.1212 11.29L9.53429 2.625ZM3.84241 11.875L8.42929 3.21063L13.0193 11.875H3.84241Z" fill="#BE0808"/>
</svg>
