<svg width="14" height="19" viewBox="0 0 14 19" fill="none" xmlns="http://www.w3.org/2000/svg">
<path d="M11.2949 6.93726H3.41992V4.88101C3.41992 4.10027 3.74557 3.35152 4.32524 2.79946C4.9049 2.2474 5.69109 1.93726 6.51086 1.93726H6.89149C7.71125 1.93726 8.49744 2.2474 9.07711 2.79946C9.65677 3.35152 9.98242 4.10027 9.98242 4.88101C9.98242 5.04677 10.0516 5.20574 10.1746 5.32295C10.2977 5.44016 10.4646 5.50601 10.6387 5.50601C10.8127 5.50601 10.9796 5.44016 11.1027 5.32295C11.2258 5.20574 11.2949 5.04677 11.2949 4.88101C11.2932 3.76926 10.8287 2.70353 10.0033 1.9174C9.17784 1.13128 8.05882 0.688909 6.89149 0.687256H6.51086C5.34353 0.688909 4.2245 1.13128 3.39908 1.9174C2.57365 2.70353 2.10916 3.76926 2.10742 4.88101V6.93726C1.58528 6.93726 1.08452 7.1348 0.715305 7.48643C0.346093 7.83806 0.138672 8.31497 0.138672 8.81226V14.6248C0.140407 15.5691 0.535064 16.4743 1.23619 17.142C1.93732 17.8097 2.88775 18.1856 3.8793 18.1873H9.52305C10.5146 18.1856 11.465 17.8097 12.1662 17.142C12.8673 16.4743 13.2619 15.5691 13.2637 14.6248V8.81226C13.2637 8.31497 13.0563 7.83806 12.687 7.48643C12.3178 7.1348 11.8171 6.93726 11.2949 6.93726ZM11.9512 14.6248C11.9512 15.2381 11.6954 15.8263 11.24 16.2599C10.7846 16.6936 10.167 16.9373 9.52305 16.9373H3.8793C3.23532 16.9373 2.61772 16.6936 2.16235 16.2599C1.70699 15.8263 1.45117 15.2381 1.45117 14.6248V8.81226C1.45117 8.6465 1.52031 8.48752 1.64338 8.37031C1.76645 8.2531 1.93337 8.18726 2.10742 8.18726H11.2949C11.469 8.18726 11.6359 8.2531 11.759 8.37031C11.882 8.48752 11.9512 8.6465 11.9512 8.81226V14.6248ZM7.35742 12.3873V14.4373C7.35742 14.603 7.28828 14.762 7.16521 14.8792C7.04214 14.9964 6.87522 15.0623 6.70117 15.0623C6.52712 15.0623 6.3602 14.9964 6.23713 14.8792C6.11406 14.762 6.04492 14.603 6.04492 14.4373V12.3873C5.7947 12.2497 5.59915 12.0373 5.48858 11.7831C5.37801 11.5289 5.35861 11.247 5.43339 10.9812C5.50817 10.7154 5.67295 10.4805 5.90217 10.313C6.13139 10.1455 6.41225 10.0547 6.70117 10.0547C6.9901 10.0547 7.27095 10.1455 7.50017 10.313C7.72939 10.4805 7.89417 10.7154 7.96895 10.9812C8.04373 11.247 8.02433 11.5289 7.91376 11.7831C7.8032 12.0373 7.60764 12.2497 7.35742 12.3873Z" fill="#7A7A7A"/>
</svg>
