<svg width="21" height="16" viewBox="0 0 21 16" fill="none" xmlns="http://www.w3.org/2000/svg">
<path d="M19.2654 0.5H2.59881C1.67959 0.5 0.932129 1.24746 0.932129 2.16668V13.8334C0.932129 14.7525 1.67959 15.5 2.59881 15.5H19.2655C20.1847 15.5 20.9321 14.7525 20.9321 13.8333V2.16668C20.9321 1.24746 20.1847 0.5 19.2654 0.5ZM2.59881 1.33332H19.2655C19.3269 1.33332 19.381 1.3557 19.4386 1.36836C17.9957 2.68895 13.2112 7.06598 11.5368 8.57453C11.4058 8.69254 11.1946 8.83332 10.9322 8.83332C10.6697 8.83332 10.4585 8.69254 10.3271 8.57414C8.65291 7.06582 3.86811 2.68855 2.42541 1.36844C2.48314 1.35578 2.53736 1.33332 2.59881 1.33332ZM1.76545 13.8333V2.16668C1.76545 2.08504 1.79006 2.01098 1.81209 1.93637C2.91646 2.94715 6.2549 6.00121 8.41959 7.96969C6.26193 9.82309 2.92264 12.989 1.80947 14.0505C1.78982 13.9796 1.76545 13.9104 1.76545 13.8333ZM19.2654 14.6667H2.59881C2.53225 14.6667 2.47307 14.6435 2.41092 14.6286C3.56119 13.5321 6.92174 10.3479 9.04146 8.53453C9.31779 8.7852 9.57022 9.01375 9.7692 9.19305C10.1126 9.50312 10.5146 9.66668 10.9321 9.66668C11.3496 9.66668 11.7516 9.50309 12.0946 9.19344C12.2937 9.01406 12.5463 8.78531 12.8228 8.53453C14.9426 10.3477 18.3027 13.5316 19.4533 14.6286C19.3912 14.6435 19.3321 14.6667 19.2654 14.6667ZM20.0988 13.8333C20.0988 13.9103 20.0744 13.9796 20.0548 14.0505C18.9412 12.9885 15.6023 9.82289 13.4447 7.96973C15.6095 6.00125 18.9474 2.94746 20.0522 1.93629C20.0742 2.0109 20.0988 2.085 20.0988 2.16664V13.8333Z" fill="#7A7A7A"/>
</svg>
